<svg width="221" height="260" viewBox="0 0 221 260" fill="none" xmlns="http://www.w3.org/2000/svg">
<g clip-path="url(#clip0)">
<path d="M120.8 15.8C115.2 27.9 112.7 31.7 110.8 32.1C109.4 32.3 103.3 33.2 97.0999 33.9C50.9999 39 13.8999 72.1 2.09989 118.4C-0.000110865 126.8 -0.200111 130.6 0.0998891 148.2C0.599889 166.3 0.899889 169.3 3.89989 178.2C7.49989 189 13.4999 201.6 17.0999 206.2L19.3999 209.1L24.1999 200.4L28.9999 191.7L26.0999 186.2C24.5999 183.2 21.9999 176 20.3999 170.4C16.4999 157 16.2999 135.3 19.7999 121.2C27.7999 89.5 53.9999 62.7 85.4999 54C93.0999 51.9 104.3 50.7 104.3 52C104.3 52.2 81.6999 98.5 54.0999 154.8L3.89989 257.3L7.99989 258.1C10.2999 258.6 19.5999 258.9 28.5999 258.9L44.9999 259L61.2999 222C70.2999 201.7 78.0999 184.8 78.3999 184.6C78.8999 184.4 90.4999 184 104.3 184L129.4 183.8L130 190.8L130.6 197.8L148.4 184.1C158.2 176.6 170.8 178.5 170.8 178.2C170.8 177.7 158.6 161.7 149.1 152.8L123.5 134L131.3 143.2L130.9 150H92.4999L93.6999 147.1C97.6999 136.7 129.2 62.5 130.2 61.6C130.8 60.9 131.3 73.6 131.4 93.8V127.1L146.3 140.8L189.7 154.8L161.8 111.6C162.3 79.7 162.7 68.6 163.8 68.2C166.1 67.4 184.3 86.7 189.7 95.9C192.5 100.6 196.4 109.3 198.5 115.2C202.1 125.5 202.3 126.6 202.3 144.6C202.3 161.1 201.9 164.3 199.6 171.6C190.8 198.1 173.9 217.8 150.7 229C134.6 236.9 127.6 238.4 109.1 238.3C94.0999 238.2 92.6999 237.9 81.4999 234.1C75.0999 231.9 68.7999 229.5 67.6999 229.1C66.0999 228.4 65.0999 229.6 62.1999 236C60.1999 240.2 58.6999 244 58.6999 244.2C58.6999 245 75.8999 251.5 84.4999 253.8C90.4999 255.6 96.0999 255.9 110.9 255.9C127.8 255.8 130.7 255.4 140.1 252.6C170 243.6 194.5 223.4 208.1 196.8C218.3 177 221 163.9 220.3 139.7C219.7 124.9 219.2 120.8 216.4 112.4C208 86.1 190.8 63.2 170.8 50.8L163.2 46.1L163.1 22.9V0H128.5L120.8 15.8Z" fill="url(#paint0_linear)"/>
<path d="M146 195.1L130.8 208.1L97.5 213C105.8 213.1 152.8 220.2 153 220C153.2 219.6 161.6 202.1 161.5 195L178.5 183.5L146 195.1Z" fill="#7275C8"/>
</g>
<defs>
<linearGradient id="paint0_linear" x1="110.197" y1="0" x2="110.197" y2="259" gradientUnits="userSpaceOnUse">
<stop offset="0.119792" stop-color="#33436B"/>
<stop offset="1" stop-color="#EABB43" stop-opacity="0.6"/>
</linearGradient>
<clipPath id="clip0">
<rect width="220.2" height="259.1" fill="white"/>
</clipPath>
</defs>
</svg>
